<svg xmlns="http://www.w3.org/2000/svg" width="1100" height="700" viewBox="0 0 1100 700" role="img" aria-labelledby="titleId descId">
  <title id="titleId">Aashir Javed&apos;s Stats, Grade A++</title>
  <desc id="descId">Grade A++, 396 pull requests, 329 merged pull requests, 67 repositories, 1,773,105 lines changed across authored pull requests, 5,224 contributions, 33 day current streak, 44 day longest streak</desc>
  <defs>
    <linearGradient id="activity-fill" x1="0" y1="0" x2="0" y2="1">
      <stop offset="0%" stop-color="#bf91f3" stop-opacity="0.72"/>
      <stop offset="100%" stop-color="#bf91f3" stop-opacity="0.04"/>
    </linearGradient>
  </defs>
  <style>
    text { font-family: -apple-system, BlinkMacSystemFont, "SF Pro Display", "Segoe UI", sans-serif; }
    .title { fill: #70a5fd; font-size: 29px; font-weight: 700; letter-spacing: -0.4px; }
    .eyebrow { fill: #8b949e; font-family: "SFMono-Regular", Consolas, monospace; font-size: 12px; font-weight: 600; letter-spacing: 1.4px; }
    .metric-value { fill: #f0f6fc; font-size: 34px; font-weight: 720; letter-spacing: -0.6px; }
    .metric-label { fill: #38bdae; font-family: "SFMono-Regular", Consolas, monospace; font-size: 12px; font-weight: 650; letter-spacing: 0.8px; }
    .grade { fill: #38bdae; font-size: 42px; font-weight: 800; letter-spacing: -1px; }
    .streak-value { fill: #70a5fd; font-size: 36px; font-weight: 760; letter-spacing: -0.6px; }
    .streak-label { fill: #f0f6fc; font-size: 15px; font-weight: 650; }
    .streak-date { fill: #38bdae; font-family: "SFMono-Regular", Consolas, monospace; font-size: 12px; }
    .chart-label { fill: #8b949e; font-family: "SFMono-Regular", Consolas, monospace; font-size: 11px; }
    .footer { fill: #8b949e; font-family: "SFMono-Regular", Consolas, monospace; font-size: 11px; }
  </style>

  <rect x="0.5" y="0.5" width="1099" height="699" rx="18" fill="#161822" stroke="#2d333b"/>

  <text class="title" x="56" y="58">Stats</text>
  <text class="eyebrow" x="56" y="86">PUBLIC + PRIVATE GITHUB ACTIVITY</text>
  <text class="eyebrow" x="1044" y="58" text-anchor="end">UPDATED AUG 9, 2026</text>


  <g transform="translate(56 155)">
    <text class="metric-value" data-testid="stars">16</text>
    <text class="metric-label" y="28">TOTAL STARS</text>
  </g>

  <g transform="translate(238 155)">
    <text class="metric-value" data-testid="prs">396</text>
    <text class="metric-label" y="28">TOTAL PRS</text>
  </g>

  <g transform="translate(420 155)">
    <text class="metric-value" data-testid="prs_merged">329</text>
    <text class="metric-label" y="28">PRS MERGED</text>
  </g>

  <g transform="translate(56 248)">
    <text class="metric-value" data-testid="repos">67</text>
    <text class="metric-label" y="28">ALL REPOSITORIES</text>
  </g>

  <g transform="translate(302 248)">
    <text class="metric-value" data-testid="lines_changed">1.8M</text>
    <text class="metric-label" y="28">PR LINES CHANGED</text>
  </g>

  <g transform="translate(920 206)">
    <circle r="71" fill="none" stroke="#2e3855" stroke-width="12"/>
    <circle r="71" fill="none" stroke="#70a5fd" stroke-width="12" stroke-linecap="round"/>
    <text class="grade" data-testid="grade" text-anchor="middle" dominant-baseline="central">A++</text>
    <text class="eyebrow" y="103" text-anchor="middle">GRADE</text>
  </g>

  <line x1="56" y1="327" x2="1044" y2="327" stroke="#2d333b"/>

  <g transform="translate(56 381)">
    <text class="streak-value" data-testid="total_contributions">5,224</text>
    <text class="streak-label" y="30">Total contributions</text>
    <text class="streak-date" y="55">Since Nov 2023</text>
  </g>
  <g transform="translate(403 381)">
    <text class="streak-value" data-testid="current_streak">33 days</text>
    <text class="streak-label" y="30">Current streak</text>
    <text class="streak-date" y="55">Jul 8 – Aug 9</text>
  </g>
  <g transform="translate(748 381)">
    <text class="streak-value" data-testid="longest_streak">44 days</text>
    <text class="streak-label" y="30">Longest streak</text>
    <text class="streak-date" y="55">Jun 21 – Aug 3</text>
  </g>

  <line x1="56" y1="470" x2="1044" y2="470" stroke="#2d333b"/>
  <text class="eyebrow" x="56" y="509">CONTRIBUTION VELOCITY · LAST 12 MONTHS</text>
  <text class="eyebrow" x="1044" y="509" text-anchor="end">PEAK 948 / WEEK</text>
  <line x1="56" y1="624" x2="1044" y2="624" stroke="#2d333b"/>
  <path d="M56.0 622.4 L75.4 621.6 L94.7 622.6 L114.1 622.9 L133.5 623.1 L152.9 623.4 L172.2 621.9 L191.6 622.7 L211.0 621.2 L230.4 623.3 L249.7 623.4 L269.1 623.4 L288.5 622.6 L307.8 621.9 L327.2 623.1 L346.6 623.5 L366.0 623.2 L385.3 623.2 L404.7 623.4 L424.1 623.4 L443.5 623.3 L462.8 621.9 L482.2 623.5 L501.6 622.0 L520.9 623.0 L540.3 621.8 L559.7 621.9 L579.1 621.5 L598.4 618.6 L617.8 621.4 L637.2 621.4 L656.5 621.1 L675.9 620.8 L695.3 620.7 L714.7 622.9 L734.0 621.7 L753.4 618.7 L772.8 622.9 L792.2 623.5 L811.5 622.8 L830.9 622.6 L850.3 620.3 L869.6 620.7 L889.0 621.1 L908.4 617.8 L927.8 620.4 L947.1 619.2 L966.5 594.7 L985.9 532.0 L1005.3 549.7 L1024.6 565.0 L1044.0 590.1 L1044 624 L56 624 Z" fill="url(#activity-fill)"/>
  <path d="M56.0 622.4 L75.4 621.6 L94.7 622.6 L114.1 622.9 L133.5 623.1 L152.9 623.4 L172.2 621.9 L191.6 622.7 L211.0 621.2 L230.4 623.3 L249.7 623.4 L269.1 623.4 L288.5 622.6 L307.8 621.9 L327.2 623.1 L346.6 623.5 L366.0 623.2 L385.3 623.2 L404.7 623.4 L424.1 623.4 L443.5 623.3 L462.8 621.9 L482.2 623.5 L501.6 622.0 L520.9 623.0 L540.3 621.8 L559.7 621.9 L579.1 621.5 L598.4 618.6 L617.8 621.4 L637.2 621.4 L656.5 621.1 L675.9 620.8 L695.3 620.7 L714.7 622.9 L734.0 621.7 L753.4 618.7 L772.8 622.9 L792.2 623.5 L811.5 622.8 L830.9 622.6 L850.3 620.3 L869.6 620.7 L889.0 621.1 L908.4 617.8 L927.8 620.4 L947.1 619.2 L966.5 594.7 L985.9 532.0 L1005.3 549.7 L1024.6 565.0 L1044.0 590.1" fill="none" stroke="#bf91f3" stroke-width="3" stroke-linejoin="round" stroke-linecap="round"/>
  <text class="chart-label" x="56.0" y="648" text-anchor="middle">Aug</text>
<text class="chart-label" x="249.7" y="648" text-anchor="middle">Oct</text>
<text class="chart-label" x="443.5" y="648" text-anchor="middle">Dec</text>
<text class="chart-label" x="637.2" y="648" text-anchor="middle">Mar</text>
<text class="chart-label" x="830.9" y="648" text-anchor="middle">May</text>
<text class="chart-label" x="1044.0" y="648" text-anchor="middle">Aug</text>

  <text class="footer" x="56" y="680">58 public · 9 private · joined Nov 2023</text>
  <text class="footer" x="1044" y="680" text-anchor="end">Phoenix</text>
</svg>
